<svg width="6" height="10" viewBox="0 0 6 10" fill="none" xmlns="http://www.w3.org/2000/svg">
<path fill-rule="evenodd" clip-rule="evenodd" d="M0.540004 0.208095C0.6058 0.142131 0.683965 0.0897967 0.770018 0.0540883C0.856072 0.01838 0.948325 0 1.04149 0C1.13466 0 1.22691 0.01838 1.31297 0.0540883C1.39902 0.0897967 1.47719 0.142131 1.54298 0.208095L5.79289 4.458C5.85885 4.5238 5.91119 4.60196 5.94689 4.68802C5.9826 4.77407 6.00098 4.86632 6.00098 4.95949C6.00098 5.05266 5.9826 5.14491 5.94689 5.23097C5.91119 5.31702 5.85885 5.39518 5.79289 5.46098L1.54298 9.71089C1.40998 9.84389 1.22959 9.91861 1.04149 9.91861C0.853398 9.91861 0.673007 9.84389 0.540004 9.71089C0.407001 9.57788 0.332281 9.39749 0.332281 9.2094C0.332281 9.0213 0.407001 8.84091 0.540004 8.70791L4.28984 4.95949L0.540004 1.21107C0.474041 1.14528 0.421707 1.06711 0.385998 0.981059C0.35029 0.895005 0.331909 0.802752 0.331909 0.709584C0.331909 0.616415 0.35029 0.524162 0.385998 0.438109C0.421707 0.352055 0.474041 0.273891 0.540004 0.208095Z" fill="white"/>
</svg>
